<svg width="66" height="49" viewBox="0 0 66 49" fill="none" xmlns="http://www.w3.org/2000/svg">
<g id="Badge" filter="url(#filter0_dd_2_340)">
<rect x="9.76013" y="4.8916" width="46.6143" height="30.0304" rx="5.37857" fill="white"/>
<rect x="9.64808" y="4.77955" width="46.8384" height="30.2545" rx="5.49062" stroke="#D6DCE5" stroke-width="0.224107"/>
<g id="&#239;&#163;&#191; Pay">
<path d="M24.8371 15.9733C25.1481 15.5843 25.3592 15.062 25.3035 14.5283C24.8483 14.551 24.2927 14.8287 23.9711 15.218C23.6823 15.5513 23.4267 16.0955 23.4933 16.6068C24.0044 16.6511 24.5149 16.3514 24.8371 15.9733Z" fill="#000008"/>
<path d="M25.2977 16.7067C24.5556 16.6625 23.9246 17.1279 23.5701 17.1279C23.2155 17.1279 22.6728 16.7289 22.0858 16.7397C21.3218 16.7509 20.6129 17.1829 20.2252 17.87C19.4277 19.2444 20.0147 21.2832 20.7902 22.4026C21.1668 22.9564 21.6206 23.5662 22.2186 23.5443C22.7837 23.5221 23.0051 23.1784 23.692 23.1784C24.3783 23.1784 24.5778 23.5443 25.1759 23.5332C25.7962 23.5221 26.1839 22.9791 26.5605 22.4248C26.9925 21.7935 27.1694 21.1839 27.1805 21.1504C27.1694 21.1393 25.9845 20.6848 25.9735 19.3218C25.9623 18.1805 26.9038 17.6376 26.9481 17.6039C26.4164 16.8176 25.5857 16.7289 25.2977 16.7067Z" fill="#000008"/>
<path d="M31.7598 15.1621C33.3728 15.1621 34.4961 16.274 34.4961 17.8929C34.4961 19.5175 33.3497 20.6351 31.7193 20.6351H29.9334V23.4753H28.643V15.1621L31.7598 15.1621ZM29.9334 19.552H31.414C32.5374 19.552 33.1768 18.9472 33.1768 17.8986C33.1768 16.8502 32.5374 16.251 31.4197 16.251H29.9334V19.552Z" fill="#000008"/>
<path d="M34.8332 21.7528C34.8332 20.6927 35.6455 20.0417 37.0859 19.9611L38.7449 19.8632V19.3966C38.7449 18.7225 38.2898 18.3192 37.5295 18.3192C36.8092 18.3192 36.3598 18.6648 36.2504 19.2064H35.0752C35.1443 18.1117 36.0775 17.3052 37.5755 17.3052C39.0445 17.3052 39.9835 18.083 39.9835 19.2985V23.4753H38.7909V22.4787H38.7623C38.4109 23.1527 37.6446 23.579 36.8496 23.579C35.6628 23.579 34.8332 22.8416 34.8332 21.7528ZM38.7449 21.2055V20.7274L37.2528 20.8195C36.5096 20.8714 36.0891 21.1997 36.0891 21.7182C36.0891 22.2482 36.5269 22.5939 37.1952 22.5939C38.0651 22.5939 38.7449 21.9947 38.7449 21.2055Z" fill="#000008"/>
<path d="M41.1094 25.7049V24.6967C41.2014 24.7197 41.4088 24.7197 41.5125 24.7197C42.0886 24.7197 42.3997 24.4778 42.5898 23.8556C42.5898 23.844 42.6993 23.4869 42.6993 23.4811L40.5102 17.4147H41.8581L43.3907 22.3462H43.4136L44.9462 17.4147H46.2597L43.9897 23.7921C43.4714 25.2613 42.8722 25.7337 41.6163 25.7337C41.5125 25.7337 41.2014 25.7221 41.1094 25.7049Z" fill="#000008"/>
</g>
</g>
<defs>
<filter id="filter0_dd_2_340" x="0.571725" y="0.185338" width="64.9911" height="48.4071" filterUnits="userSpaceOnUse" color-interpolation-filters="sRGB">
<feFlood flood-opacity="0" result="BackgroundImageFix"/>
<feColorMatrix in="SourceAlpha" type="matrix" values="0 0 0 0 0 0 0 0 0 0 0 0 0 0 0 0 0 0 127 0" result="hardAlpha"/>
<feOffset dy="0.448214"/>
<feGaussianBlur stdDeviation="2.24107"/>
<feColorMatrix type="matrix" values="0 0 0 0 0.717647 0 0 0 0 0.717647 0 0 0 0 0.717647 0 0 0 0.08 0"/>
<feBlend mode="normal" in2="BackgroundImageFix" result="effect1_dropShadow_2_340"/>
<feColorMatrix in="SourceAlpha" type="matrix" values="0 0 0 0 0 0 0 0 0 0 0 0 0 0 0 0 0 0 127 0" result="hardAlpha"/>
<feOffset dy="4.48214"/>
<feGaussianBlur stdDeviation="4.48214"/>
<feColorMatrix type="matrix" values="0 0 0 0 0.717647 0 0 0 0 0.717647 0 0 0 0 0.717647 0 0 0 0.08 0"/>
<feBlend mode="normal" in2="effect1_dropShadow_2_340" result="effect2_dropShadow_2_340"/>
<feBlend mode="normal" in="SourceGraphic" in2="effect2_dropShadow_2_340" result="shape"/>
</filter>
</defs>
</svg>
