<svg width="30" height="30" viewBox="0 0 30 30" fill="none" xmlns="http://www.w3.org/2000/svg">
<g id="Facebook">
<path id="Icon" d="M12.5 14.5C13.6046 14.5 14.5 13.6046 14.5 12.5V8.75C14.5 7.62283 14.9478 6.54183 15.7448 5.7448C16.5418 4.94777 17.6228 4.5 18.75 4.5H20.5V5.5H18.75C17.888 5.5 17.0614 5.84241 16.4519 6.4519C15.8424 7.0614 15.5 7.88804 15.5 8.75V12.5C15.5 13.6046 16.3954 14.5 17.5 14.5H19.9384L19.6884 15.5H17.5C16.3954 15.5 15.5 16.3954 15.5 17.5V25.5H14.5V17.5C14.5 16.3954 13.6046 15.5 12.5 15.5H10.75V14.5H12.5Z" stroke="#1E1E1E" stroke-width="4" stroke-linecap="round" stroke-linejoin="round"/>
</g>
</svg>
