<svg width="66" height="49" viewBox="0 0 66 49" fill="none" xmlns="http://www.w3.org/2000/svg">
<g id="Badge" filter="url(#filter0_dd_2_336)">
<rect x="9.53149" y="4.8916" width="46.6143" height="30.0304" rx="5.37857" fill="white"/>
<rect x="9.41944" y="4.77955" width="46.8384" height="30.2545" rx="5.49062" stroke="#D6DCE5" stroke-width="0.224107"/>
<g id="Mastercard">
<path d="M36.1871 13.74H29.3238V26.0735H36.1871V13.74Z" fill="#FF5F00"/>
<path d="M29.7596 19.9067C29.7585 18.7189 30.0277 17.5464 30.5467 16.478C31.0658 15.4096 31.8211 14.4733 32.7555 13.74C31.5984 12.8305 30.2087 12.2649 28.7453 12.1078C27.282 11.9507 25.8039 12.2085 24.4801 12.8518C23.1564 13.495 22.0403 14.4977 21.2594 15.7453C20.4786 16.9929 20.0645 18.435 20.0645 19.9067C20.0645 21.3785 20.4786 22.8206 21.2594 24.0682C22.0403 25.3157 23.1564 26.3185 24.4801 26.9617C25.8039 27.6049 27.282 27.8628 28.7453 27.7057C30.2087 27.5486 31.5984 26.983 32.7555 26.0735C31.8211 25.3401 31.0658 24.4038 30.5468 23.3354C30.0277 22.267 29.7586 21.0945 29.7596 19.9067Z" fill="#EB001B"/>
<path d="M45.446 19.9067C45.4461 21.3785 45.0321 22.8206 44.2513 24.0681C43.4705 25.3157 42.3544 26.3184 41.0307 26.9617C39.7069 27.6049 38.2289 27.8628 36.7656 27.7057C35.3022 27.5486 33.9126 26.983 32.7555 26.0735C33.689 25.3394 34.4438 24.4029 34.9627 23.3347C35.4817 22.2665 35.7513 21.0944 35.7513 19.9067C35.7513 18.7191 35.4817 17.547 34.9627 16.4788C34.4438 15.4105 33.689 14.4741 32.7555 13.74C33.9126 12.8305 35.3022 12.2648 36.7656 12.1078C38.2289 11.9507 39.7069 12.2085 41.0307 12.8518C42.3544 13.495 43.4705 14.4978 44.2513 15.7453C45.0321 16.9929 45.4461 18.435 45.446 19.9067Z" fill="#F79E1B"/>
<path d="M44.6977 24.7672V24.5147H44.7995V24.4632H44.5402V24.5147H44.6421V24.7672H44.6977ZM45.2011 24.7672V24.4627H45.1216L45.0302 24.6721L44.9388 24.4627H44.8593V24.7672H44.9154V24.5375L45.0011 24.7355H45.0593L45.145 24.537V24.7672H45.2011Z" fill="#F79E1B"/>
</g>
</g>
<defs>
<filter id="filter0_dd_2_336" x="0.343087" y="0.185338" width="64.9911" height="48.4071" filterUnits="userSpaceOnUse" color-interpolation-filters="sRGB">
<feFlood flood-opacity="0" result="BackgroundImageFix"/>
<feColorMatrix in="SourceAlpha" type="matrix" values="0 0 0 0 0 0 0 0 0 0 0 0 0 0 0 0 0 0 127 0" result="hardAlpha"/>
<feOffset dy="0.448214"/>
<feGaussianBlur stdDeviation="2.24107"/>
<feColorMatrix type="matrix" values="0 0 0 0 0.717647 0 0 0 0 0.717647 0 0 0 0 0.717647 0 0 0 0.08 0"/>
<feBlend mode="normal" in2="BackgroundImageFix" result="effect1_dropShadow_2_336"/>
<feColorMatrix in="SourceAlpha" type="matrix" values="0 0 0 0 0 0 0 0 0 0 0 0 0 0 0 0 0 0 127 0" result="hardAlpha"/>
<feOffset dy="4.48214"/>
<feGaussianBlur stdDeviation="4.48214"/>
<feColorMatrix type="matrix" values="0 0 0 0 0.717647 0 0 0 0 0.717647 0 0 0 0 0.717647 0 0 0 0.08 0"/>
<feBlend mode="normal" in2="effect1_dropShadow_2_336" result="effect2_dropShadow_2_336"/>
<feBlend mode="normal" in="SourceGraphic" in2="effect2_dropShadow_2_336" result="shape"/>
</filter>
</defs>
</svg>
