<svg width="66" height="49" viewBox="0 0 66 49" fill="none" xmlns="http://www.w3.org/2000/svg">
<g id="Badge" filter="url(#filter0_dd_2_338)">
<rect x="10.1458" y="4.8916" width="46.6143" height="30.0304" rx="5.37857" fill="white"/>
<rect x="10.0338" y="4.77955" width="46.8384" height="30.2545" rx="5.49062" stroke="#D6DCE5" stroke-width="0.224107"/>
<g id="Paypal">
<path fill-rule="evenodd" clip-rule="evenodd" d="M20.343 15.5376H17.6555C17.4716 15.5376 17.3152 15.6712 17.2865 15.8527L16.1995 22.7435C16.1779 22.8795 16.2832 23.002 16.4212 23.002H17.7042C17.8881 23.002 18.0445 22.8684 18.0732 22.6865L18.3664 20.828C18.3947 20.646 18.5515 20.5125 18.735 20.5125H19.5857C21.3561 20.5125 22.3778 19.6559 22.6447 17.9585C22.7649 17.2159 22.6498 16.6324 22.3019 16.2237C21.92 15.7751 21.2424 15.5376 20.343 15.5376ZM20.653 18.0543C20.5061 19.0186 19.7693 19.0186 19.0568 19.0186H18.6513L18.9358 17.2177C18.9527 17.109 19.047 17.0288 19.157 17.0288H19.3429C19.8282 17.0288 20.2861 17.0288 20.5227 17.3054C20.6636 17.4705 20.7069 17.7156 20.653 18.0543ZM28.3766 18.0234H27.0896C26.9799 18.0234 26.8852 18.1036 26.8683 18.2125L26.8114 18.5724L26.7213 18.442C26.4427 18.0376 25.8215 17.9025 25.2014 17.9025C23.7791 17.9025 22.5645 18.9795 22.3279 20.4904C22.205 21.2439 22.3798 21.9645 22.8073 22.4671C23.1996 22.9291 23.7608 23.1217 24.4283 23.1217C25.5742 23.1217 26.2098 22.3849 26.2098 22.3849L26.1523 22.7425C26.1307 22.8793 26.236 23.0018 26.3731 23.0018H27.5324C27.7168 23.0018 27.8723 22.8682 27.9014 22.6864L28.597 18.282C28.619 18.1465 28.5141 18.0234 28.3766 18.0234ZM26.5826 20.528C26.4584 21.2631 25.8748 21.7566 25.1307 21.7566C24.7569 21.7566 24.4582 21.6368 24.2665 21.4097C24.0763 21.1842 24.0039 20.8631 24.0644 20.5056C24.1805 19.7767 24.7739 19.2672 25.5067 19.2672C25.8721 19.2672 26.1692 19.3884 26.3649 19.6176C26.5609 19.849 26.6388 20.172 26.5826 20.528ZM33.9375 18.0233H35.2308C35.412 18.0233 35.5176 18.2264 35.4147 18.3749L31.1133 24.5831C31.0436 24.6836 30.9289 24.7434 30.8063 24.7434H29.5146C29.3328 24.7434 29.2266 24.5387 29.3318 24.3898L30.6712 22.4994L29.2467 18.3195C29.1975 18.1742 29.3048 18.0233 29.4593 18.0233H30.7301C30.8952 18.0233 31.0409 18.1316 31.0886 18.2896L31.8445 20.8142L33.6283 18.1871C33.6982 18.0845 33.8142 18.0233 33.9375 18.0233Z" fill="#253B80"/>
<path fill-rule="evenodd" clip-rule="evenodd" d="M47.96 22.7428L49.063 15.7261C49.0799 15.6172 49.1743 15.537 49.2839 15.5366H50.5256C50.6628 15.5366 50.768 15.6595 50.7464 15.7956L49.6587 22.6859C49.6304 22.8678 49.474 23.0014 49.2898 23.0014H48.1808C48.0437 23.0014 47.9384 22.8788 47.96 22.7428ZM39.5131 15.537H36.8251C36.6416 15.537 36.4852 15.6706 36.4565 15.8521L35.3696 22.7428C35.3479 22.8788 35.4532 23.0014 35.5905 23.0014H36.9697C37.0979 23.0014 37.2076 22.9079 37.2276 22.7807L37.536 20.8274C37.5644 20.6454 37.7211 20.5119 37.9046 20.5119H38.755C40.5257 20.5119 41.5471 19.6553 41.8143 17.9579C41.9349 17.2153 41.819 16.6318 41.4713 16.223C41.0896 15.7745 40.4126 15.537 39.5131 15.537ZM39.8232 18.0537C39.6766 19.018 38.9397 19.018 38.2269 19.018H37.8217L38.1066 17.2171C38.1236 17.1084 38.217 17.0282 38.3274 17.0282H38.5133C38.9983 17.0282 39.4565 17.0282 39.693 17.3048C39.8341 17.4699 39.877 17.715 39.8232 18.0537ZM47.546 18.0228H46.2599C46.1493 18.0228 46.0555 18.103 46.0389 18.2119L45.982 18.5718L45.8916 18.4414C45.613 18.037 44.9922 17.9019 44.3721 17.9019C42.9498 17.9019 41.7355 18.9789 41.4989 20.4897C41.3764 21.2433 41.5504 21.9639 41.978 22.4664C42.3709 22.9285 42.9314 23.1211 43.599 23.1211C44.7449 23.1211 45.3803 22.3843 45.3803 22.3843L45.323 22.7419C45.3013 22.8787 45.4066 23.0012 45.5447 23.0012H46.7034C46.8869 23.0012 47.0433 22.8676 47.072 22.6857L47.768 18.2814C47.7893 18.1459 47.684 18.0228 47.546 18.0228ZM45.7522 20.5274C45.6287 21.2625 45.0444 21.756 44.3 21.756C43.9271 21.756 43.6277 21.6362 43.4359 21.4091C43.2457 21.1836 43.1742 20.8625 43.234 20.505C43.3506 19.7761 43.9432 19.2666 44.6761 19.2666C45.0416 19.2666 45.3386 19.3878 45.5345 19.6169C45.7312 19.8484 45.8091 20.1714 45.7522 20.5274Z" fill="#179BD7"/>
</g>
</g>
<defs>
<filter id="filter0_dd_2_338" x="0.957406" y="0.185338" width="64.9911" height="48.4071" filterUnits="userSpaceOnUse" color-interpolation-filters="sRGB">
<feFlood flood-opacity="0" result="BackgroundImageFix"/>
<feColorMatrix in="SourceAlpha" type="matrix" values="0 0 0 0 0 0 0 0 0 0 0 0 0 0 0 0 0 0 127 0" result="hardAlpha"/>
<feOffset dy="0.448214"/>
<feGaussianBlur stdDeviation="2.24107"/>
<feColorMatrix type="matrix" values="0 0 0 0 0.717647 0 0 0 0 0.717647 0 0 0 0 0.717647 0 0 0 0.08 0"/>
<feBlend mode="normal" in2="BackgroundImageFix" result="effect1_dropShadow_2_338"/>
<feColorMatrix in="SourceAlpha" type="matrix" values="0 0 0 0 0 0 0 0 0 0 0 0 0 0 0 0 0 0 127 0" result="hardAlpha"/>
<feOffset dy="4.48214"/>
<feGaussianBlur stdDeviation="4.48214"/>
<feColorMatrix type="matrix" values="0 0 0 0 0.717647 0 0 0 0 0.717647 0 0 0 0 0.717647 0 0 0 0.08 0"/>
<feBlend mode="normal" in2="effect1_dropShadow_2_338" result="effect2_dropShadow_2_338"/>
<feBlend mode="normal" in="SourceGraphic" in2="effect2_dropShadow_2_338" result="shape"/>
</filter>
</defs>
</svg>
