<svg width="66" height="49" viewBox="0 0 66 49" fill="none" xmlns="http://www.w3.org/2000/svg">
<g id="Badge" filter="url(#filter0_dd_2_334)">
<rect x="9.91724" y="4.8916" width="46.6143" height="30.0304" rx="5.37857" fill="white"/>
<rect x="9.80518" y="4.77955" width="46.8384" height="30.2545" rx="5.49062" stroke="#D6DCE5" stroke-width="0.224107"/>
<path id="Visa" d="M32.9394 15.0126L30.7652 25.1761H28.1361L30.3106 15.0126H32.9394ZM44.0011 21.5752L45.3853 17.7585L46.1818 21.5752H44.0011ZM46.9345 25.1761H49.3664L47.2443 15.0126H44.9996C44.4952 15.0126 44.0696 15.306 43.8801 15.7583L39.9357 25.1761H42.6967L43.2448 23.6584H46.618L46.9345 25.1761ZM40.0727 21.8577C40.084 19.1752 36.3631 19.0275 36.3888 17.8292C36.3965 17.4641 36.7443 17.0768 37.5038 16.9774C37.8811 16.9282 38.9185 16.8906 40.0965 17.4326L40.5578 15.2773C39.9251 15.0477 39.1109 14.8267 38.0982 14.8267C35.4997 14.8267 33.6706 16.2083 33.6552 18.1866C33.6388 19.6496 34.9609 20.4661 35.9571 20.9525C36.9814 21.4507 37.3256 21.7698 37.321 22.2154C37.3143 22.8977 36.504 23.1981 35.748 23.21C34.4259 23.2309 33.6587 22.8533 33.0472 22.5683L32.5708 24.7953C33.1849 25.0774 34.3188 25.3225 35.4952 25.3351C38.2568 25.3351 40.0637 23.9705 40.0727 21.8577ZM29.1825 15.0126L24.9228 25.1761H22.1431L20.0471 17.0649C19.9197 16.5654 19.809 16.3826 19.422 16.1719C18.7906 15.8293 17.7467 15.5073 16.8283 15.3079L16.891 15.0126H21.3647C21.9347 15.0126 22.4478 15.3922 22.5771 16.0487L23.6843 21.9304L26.4202 15.0126H29.1825Z" fill="#1434CB"/>
</g>
<defs>
<filter id="filter0_dd_2_334" x="0.728829" y="0.185338" width="64.9911" height="48.4071" filterUnits="userSpaceOnUse" color-interpolation-filters="sRGB">
<feFlood flood-opacity="0" result="BackgroundImageFix"/>
<feColorMatrix in="SourceAlpha" type="matrix" values="0 0 0 0 0 0 0 0 0 0 0 0 0 0 0 0 0 0 127 0" result="hardAlpha"/>
<feOffset dy="0.448214"/>
<feGaussianBlur stdDeviation="2.24107"/>
<feColorMatrix type="matrix" values="0 0 0 0 0.717647 0 0 0 0 0.717647 0 0 0 0 0.717647 0 0 0 0.08 0"/>
<feBlend mode="normal" in2="BackgroundImageFix" result="effect1_dropShadow_2_334"/>
<feColorMatrix in="SourceAlpha" type="matrix" values="0 0 0 0 0 0 0 0 0 0 0 0 0 0 0 0 0 0 127 0" result="hardAlpha"/>
<feOffset dy="4.48214"/>
<feGaussianBlur stdDeviation="4.48214"/>
<feColorMatrix type="matrix" values="0 0 0 0 0.717647 0 0 0 0 0.717647 0 0 0 0 0.717647 0 0 0 0.08 0"/>
<feBlend mode="normal" in2="effect1_dropShadow_2_334" result="effect2_dropShadow_2_334"/>
<feBlend mode="normal" in="SourceGraphic" in2="effect2_dropShadow_2_334" result="shape"/>
</filter>
</defs>
</svg>
